<svg id="Layer_1" data-name="Layer 1" xmlns="http://www.w3.org/2000/svg" viewBox="0 0 1000 1000"><defs><style>.cls-1{fill:#2a5cbf;}.cls-2{fill:#fff;}</style></defs><g id="Border"><path class="cls-1" d="M138,984A122.4,122.4,0,0,1,16,862V138A122.4,122.4,0,0,1,138,16H862A122.4,122.4,0,0,1,984,138V862A122.4,122.4,0,0,1,862,984Z"/><path class="cls-1" d="M862,32A106.41,106.41,0,0,1,968,138V862A106.39,106.39,0,0,1,862,968H138A106.41,106.41,0,0,1,32,862V138A106.42,106.42,0,0,1,138,32H862m0-32H138C62.1,0,0,62.1,0,138V862c0,75.9,62.1,138,138,138H862c75.9,0,138-62.1,138-138V138C1000,62.1,937.9,0,862,0Z"/></g><g id="Circles"><g id="Layer_4" data-name="Layer 4"><circle class="cls-2" cx="753.5" cy="214.5" r="118.5"/><path class="cls-2" d="M753.5,112A102.5,102.5,0,1,1,651,214.5,102.61,102.61,0,0,1,753.5,112m0-32A134.5,134.5,0,1,0,888,214.5,134.5,134.5,0,0,0,753.5,80Z"/><circle class="cls-2" cx="245.5" cy="783.5" r="118.5"/><path class="cls-2" d="M245.5,681A102.5,102.5,0,1,1,143,783.5,102.61,102.61,0,0,1,245.5,681m0-32A134.5,134.5,0,1,0,380,783.5,134.5,134.5,0,0,0,245.5,649Z"/></g></g></svg>